<?xml version="1.0" standalone="no"?>
<!DOCTYPE svg PUBLIC "-//W3C//DTD SVG 20010904//EN"
 "http://www.w3.org/TR/2001/REC-SVG-20010904/DTD/svg10.dtd">
<svg version="1.0" xmlns="http://www.w3.org/2000/svg"
 width="1587.000000pt" height="1183.000000pt" viewBox="0 0 1587.000000 1183.000000"
 preserveAspectRatio="xMidYMid meet">

<g transform="translate(0.000000,1183.000000) scale(0.100000,-0.100000)"
fill="#000000" stroke="none">
<path d="M15497 8120 c-132 -173 -353 -392 -556 -551 -223 -173 -482 -340
-966 -621 -320 -185 -309 -179 -645 -356 -519 -272 -790 -442 -1097 -687 -519
-414 -909 -920 -1143 -1481 -36 -87 -180 -337 -202 -350 -5 -3 -46 30 -92 73
-103 98 -199 171 -358 272 -205 130 -370 252 -640 477 -99 82 -141 101 -191
85 -19 -7 -94 -66 -168 -132 -241 -218 -332 -285 -581 -433 -174 -103 -265
-173 -409 -316 -149 -149 -241 -274 -331 -454 -28 -56 -68 -131 -90 -168 l-40
-68 -51 0 c-31 0 -67 8 -94 21 -79 38 -122 109 -163 269 -113 443 -188 598
-380 790 -56 56 -154 136 -235 194 -159 113 -349 259 -508 389 -149 121 -173
137 -217 137 -45 0 -71 -17 -222 -143 -172 -143 -357 -280 -528 -392 -265
-173 -419 -317 -551 -513 -176 -263 -259 -546 -259 -887 0 -595 252 -1072 706
-1341 159 -94 363 -165 589 -205 152 -27 427 -32 560 -10 238 38 470 123 678
248 32 19 59 34 61 32 1 -2 23 -33 48 -69 110 -157 259 -249 473 -290 135 -27
401 -49 502 -43 94 6 156 -6 214 -43 22 -13 137 -78 255 -144 352 -196 522
-325 644 -490 62 -83 103 -107 157 -89 19 6 90 57 157 113 217 183 367 297
574 433 188 125 371 261 416 312 l19 21 55 -102 c329 -622 937 -1128 1547
-1289 276 -73 546 -77 861 -14 869 175 1416 940 1529 2139 20 216 19 537 -5
1073 -58 1316 -51 1907 30 2583 73 598 206 986 589 1710 89 168 171 348 171
375 0 12 -21 25 -38 25 -4 0 -38 -40 -75 -90z m-1876 -3369 c24 -15 85 -65
136 -111 l92 -82 -110 -85 c-135 -104 -186 -129 -233 -113 -68 22 -175 163
-176 230 0 68 134 190 210 190 23 0 53 -11 81 -29z m-7185 -1068 c38 -25 71
-48 73 -50 8 -6 -103 -101 -132 -114 -22 -9 -33 -9 -54 2 -32 17 -83 85 -83
110 0 29 73 99 102 99 14 0 57 -21 94 -47z m7167 -1061 c61 -32 133 -112 148
-161 15 -50 -6 -90 -102 -198 -72 -81 -75 -83 -119 -83 -45 1 -46 2 -106 83
-75 100 -94 136 -94 180 0 80 145 229 205 211 11 -4 42 -18 68 -32z m-3922
-160 c36 -24 153 -131 148 -135 -2 -2 -41 -34 -87 -70 -91 -74 -115 -80 -170
-47 -44 27 -95 108 -87 139 9 37 36 72 79 102 45 33 80 36 117 11z"/>
</g>
</svg>
